<svg xmlns="http://www.w3.org/2000/svg" width="19.81" height="20" viewBox="0 0 19.81 20"><defs><style>.cls-1{fill:#fff;fill-rule:evenodd;filter:url(#filter)}</style><filter id="filter" x="1693" y="369" width="19.81" height="20" filterUnits="userSpaceOnUse"><feFlood result="flood" flood-color="#fff"/><feComposite result="composite" operator="in" in2="SourceGraphic"/><feBlend result="blend" in2="SourceGraphic"/></filter></defs><path id="Instagram" class="cls-1" d="M1712.8 386.5v1.25a1.248 1.248 0 0 1-1.24 1.25h-17.32a1.241 1.241 0 0 1-1.24-1.25v-17.502a1.241 1.241 0 0 1 1.24-1.25h17.32a1.248 1.248 0 0 1 1.24 1.25v16.25zm-9.9-10c-2.28 0-2.48 2.5-2.48 2.5a2.475 2.475 0 1 0 4.95 0s-.19-2.5-2.47-2.5zm7.42-5h-3.71v3.751h3.71V371.5zm0 7.5v-1.25h-2.65a4.7 4.7 0 0 1 .18 1.25 4.95 4.95 0 1 1-9.9 0 5.136 5.136 0 0 1 .17-1.25h-2.65v8.75h14.85V379z" transform="translate(-1693 -369)"/></svg>