<svg xmlns="http://www.w3.org/2000/svg" viewBox="0 0 94 94" width="94" height="94">
	<defs>
		<clipPath clipPathUnits="userSpaceOnUse" id="cp1">
			<path d="M-681 -697L774 -697L774 2382L-681 2382Z" />
		</clipPath>
	</defs>
	<style>
		tspan { white-space:pre }
		.shp0 { mix-blend-mode: darken;fill: #969696 } 
	</style>
	<g id="hotdog" clip-path="url(#cp1)">
		<g id="Content">
			<g id="Intro">
				<path id="hotdog" class="shp0" d="M90.56 27.21L87.03 22.58C87.04 22.57 87.04 22.57 87.05 22.56C87.19 22.31 87.33 22.06 87.46 21.81C87.49 21.76 87.51 21.71 87.54 21.65C87.65 21.41 87.76 21.17 87.86 20.92C87.89 20.86 87.91 20.79 87.94 20.73C88.01 20.53 88.08 20.34 88.14 20.14C88.17 20.05 88.2 19.95 88.23 19.86C88.29 19.65 88.34 19.45 88.39 19.25C88.41 19.14 88.44 19.03 88.46 18.91C88.5 18.7 88.54 18.49 88.57 18.28C88.58 18.16 88.6 18.04 88.61 17.92C88.63 17.77 88.64 17.62 88.65 17.48C88.66 17.3 88.67 17.13 88.67 16.96C88.68 16.81 88.68 16.66 88.68 16.51C88.67 16.39 88.67 16.28 88.67 16.16C88.66 15.94 88.64 15.72 88.62 15.51C88.61 15.4 88.59 15.29 88.58 15.19C88.55 14.96 88.52 14.73 88.47 14.51C88.46 14.43 88.44 14.35 88.42 14.28C88.38 14.07 88.33 13.87 88.28 13.67C88.26 13.61 88.24 13.54 88.22 13.47C88.15 13.23 88.07 12.99 87.98 12.75C87.96 12.68 87.93 12.62 87.91 12.55C87.81 12.31 87.71 12.06 87.59 11.82C87.57 11.78 87.55 11.74 87.53 11.69C87.41 11.45 87.29 11.21 87.15 10.98C87.14 10.96 87.13 10.94 87.12 10.93C86.98 10.68 86.82 10.44 86.66 10.21C86.63 10.17 86.6 10.12 86.57 10.08C86.41 9.85 86.24 9.63 86.06 9.41C86.03 9.37 85.99 9.34 85.96 9.3C85.77 9.07 85.57 8.85 85.36 8.64C85.14 8.43 84.92 8.23 84.7 8.04C84.66 8.01 84.62 7.97 84.59 7.94C84.37 7.76 84.15 7.59 83.92 7.43C83.88 7.4 83.83 7.37 83.79 7.34C83.56 7.17 83.32 7.02 83.07 6.88C83.05 6.86 83.04 6.86 83.02 6.84C82.78 6.71 82.55 6.58 82.31 6.47C82.26 6.45 82.22 6.42 82.18 6.4C81.94 6.29 81.69 6.19 81.45 6.09C81.38 6.07 81.32 6.04 81.25 6.02C81.01 5.93 80.77 5.85 80.53 5.78C80.46 5.76 80.39 5.74 80.32 5.72C80.13 5.67 79.93 5.62 79.72 5.58C79.65 5.56 79.57 5.54 79.49 5.53C79.27 5.48 79.04 5.45 78.81 5.42C78.71 5.4 78.6 5.39 78.49 5.38C78.28 5.36 78.06 5.34 77.84 5.33C77.73 5.32 77.61 5.32 77.49 5.32C77.34 5.32 77.19 5.32 77.04 5.32C76.87 5.33 76.7 5.34 76.53 5.35C76.38 5.36 76.23 5.37 76.08 5.39C75.96 5.4 75.84 5.41 75.72 5.43C75.51 5.46 75.3 5.5 75.09 5.54C74.98 5.56 74.86 5.59 74.75 5.61C74.55 5.66 74.35 5.71 74.15 5.77C74.05 5.8 73.96 5.83 73.86 5.86C73.66 5.92 73.47 5.99 73.27 6.06C73.21 6.09 73.14 6.11 73.08 6.14C72.83 6.23 72.59 6.34 72.35 6.46C72.3 6.49 72.25 6.51 72.2 6.54C71.94 6.66 71.69 6.8 71.44 6.95C71.44 6.96 71.43 6.96 71.42 6.96L66.79 3.43C62.05 -0.18 55.29 0.27 51.07 4.49L4.49 51.08C0.27 55.3 -0.18 62.06 3.44 66.81L6.97 71.44C6.96 71.45 6.96 71.46 6.95 71.46C6.8 71.71 6.67 71.96 6.54 72.21C6.51 72.26 6.49 72.32 6.46 72.37C6.35 72.61 6.24 72.85 6.14 73.1C6.11 73.16 6.09 73.23 6.06 73.3C5.99 73.49 5.92 73.68 5.86 73.87C5.83 73.97 5.8 74.07 5.77 74.18C5.71 74.37 5.66 74.57 5.61 74.77C5.59 74.88 5.56 75 5.54 75.11C5.5 75.32 5.46 75.53 5.43 75.73C5.42 75.86 5.4 75.98 5.39 76.1C5.37 76.25 5.36 76.39 5.35 76.54C5.34 76.71 5.33 76.89 5.33 77.07C5.32 77.21 5.32 77.36 5.32 77.51C5.33 77.63 5.33 77.75 5.33 77.86C5.34 78.08 5.36 78.3 5.38 78.51C5.39 78.62 5.41 78.73 5.42 78.83C5.45 79.06 5.48 79.29 5.53 79.51C5.54 79.59 5.56 79.67 5.58 79.75C5.62 79.95 5.67 80.15 5.72 80.35C5.74 80.41 5.76 80.48 5.78 80.55C5.85 80.79 5.93 81.03 6.02 81.27C6.04 81.34 6.07 81.4 6.09 81.47C6.19 81.71 6.29 81.96 6.4 82.2C6.43 82.24 6.45 82.28 6.47 82.33C6.59 82.57 6.71 82.81 6.85 83.04C6.86 83.06 6.87 83.08 6.88 83.09C7.02 83.34 7.18 83.58 7.34 83.81C7.37 83.85 7.4 83.9 7.43 83.94C7.59 84.17 7.76 84.39 7.94 84.61C7.97 84.65 8.01 84.68 8.04 84.72C8.23 84.95 8.43 85.17 8.64 85.38C8.85 85.59 9.08 85.79 9.3 85.98C9.34 86.01 9.38 86.05 9.41 86.08C9.63 86.26 9.85 86.43 10.08 86.59C10.12 86.62 10.17 86.65 10.21 86.68C10.44 86.85 10.68 87 10.93 87.15C10.94 87.16 10.96 87.17 10.98 87.18C11.22 87.31 11.45 87.44 11.69 87.55C11.74 87.57 11.78 87.6 11.82 87.62C12.06 87.73 12.31 87.83 12.55 87.93C12.62 87.95 12.68 87.98 12.75 88C12.99 88.09 13.23 88.17 13.47 88.24C13.54 88.26 13.61 88.28 13.67 88.3C13.87 88.35 14.07 88.4 14.27 88.44C14.35 88.46 14.43 88.48 14.51 88.49C14.73 88.54 14.96 88.57 15.19 88.6C15.29 88.62 15.4 88.63 15.51 88.64C15.72 88.66 15.94 88.68 16.16 88.69C16.27 88.7 16.39 88.7 16.51 88.7C16.66 88.7 16.81 88.7 16.95 88.7C17.13 88.69 17.3 88.68 17.48 88.67C17.62 88.66 17.77 88.65 17.91 88.63C18.04 88.62 18.16 88.61 18.28 88.59C18.49 88.56 18.7 88.52 18.91 88.48C19.02 88.46 19.14 88.43 19.25 88.41C19.45 88.36 19.65 88.31 19.84 88.25C19.94 88.23 20.04 88.19 20.14 88.16C20.34 88.1 20.53 88.03 20.72 87.96C20.79 87.93 20.86 87.91 20.92 87.88C21.17 87.79 21.41 87.68 21.65 87.56C21.7 87.53 21.75 87.51 21.8 87.48C22.06 87.36 22.31 87.22 22.55 87.07C22.56 87.06 22.57 87.06 22.58 87.06L27.21 90.59C31.95 94.2 38.71 93.75 42.93 89.53L89.51 42.94C93.73 38.72 94.18 31.96 90.56 27.21ZM21.66 83.52C21.56 83.59 21.46 83.66 21.36 83.74C21.24 83.83 21.11 83.92 20.99 84C20.87 84.08 20.75 84.14 20.63 84.21C20.54 84.27 20.44 84.33 20.35 84.38C19.89 84.61 19.42 84.8 18.94 84.95C18.94 84.95 18.93 84.95 18.93 84.95C18.69 85.02 18.45 85.08 18.21 85.12C18.18 85.13 18.16 85.13 18.13 85.14C17.91 85.18 17.69 85.21 17.47 85.23C17.43 85.24 17.39 85.24 17.35 85.24C17.14 85.26 16.94 85.27 16.73 85.27C16.68 85.27 16.62 85.27 16.57 85.27C16.38 85.26 16.19 85.26 16 85.24C15.93 85.23 15.86 85.23 15.8 85.22C15.62 85.2 15.45 85.17 15.28 85.14C15.2 85.13 15.12 85.11 15.04 85.1C14.88 85.06 14.72 85.03 14.56 84.98C14.48 84.96 14.39 84.93 14.3 84.91C14.16 84.86 14.01 84.81 13.87 84.75C13.78 84.72 13.68 84.69 13.59 84.65C13.46 84.59 13.32 84.52 13.18 84.46C13.09 84.41 13 84.37 12.91 84.32C12.78 84.25 12.65 84.17 12.52 84.09C12.43 84.04 12.35 83.99 12.26 83.93C12.12 83.84 11.99 83.73 11.86 83.63C11.79 83.58 11.71 83.53 11.65 83.47C11.45 83.31 11.25 83.14 11.07 82.95C10.88 82.77 10.71 82.57 10.55 82.37C10.49 82.31 10.44 82.23 10.39 82.16C10.29 82.03 10.18 81.9 10.09 81.76C10.03 81.67 9.98 81.59 9.93 81.5C9.85 81.37 9.77 81.24 9.7 81.11C9.65 81.02 9.61 80.93 9.56 80.84C9.5 80.7 9.43 80.56 9.37 80.43C9.34 80.34 9.3 80.24 9.27 80.15C9.21 80.01 9.16 79.86 9.11 79.71C9.09 79.63 9.06 79.54 9.04 79.46C9 79.3 8.96 79.14 8.92 78.98C8.91 78.9 8.89 78.82 8.88 78.74C8.85 78.57 8.82 78.4 8.8 78.22C8.79 78.16 8.79 78.09 8.78 78.02C8.76 77.83 8.76 77.64 8.75 77.45C8.75 77.4 8.75 77.34 8.75 77.29C8.75 77.08 8.76 76.88 8.78 76.67C8.78 76.63 8.79 76.59 8.79 76.55C8.81 76.33 8.84 76.11 8.88 75.89C8.89 75.86 8.89 75.84 8.9 75.81C8.94 75.57 9 75.33 9.07 75.09C9.07 75.09 9.07 75.08 9.08 75.08C9.22 74.6 9.41 74.12 9.64 73.67C9.7 73.57 9.76 73.48 9.81 73.39C9.88 73.27 9.95 73.15 10.02 73.03C10.1 72.9 10.19 72.78 10.29 72.66C10.36 72.56 10.43 72.46 10.5 72.36L10.54 72.32C10.7 72.12 10.88 71.92 11.07 71.73L71.71 11.07C71.9 10.88 72.1 10.7 72.3 10.54L72.34 10.5C72.44 10.43 72.54 10.36 72.64 10.29C72.76 10.2 72.88 10.1 73.01 10.02C73.12 9.95 73.24 9.88 73.36 9.82C73.46 9.76 73.55 9.7 73.65 9.64C74.11 9.41 74.58 9.22 75.06 9.07C75.07 9.07 75.07 9.07 75.08 9.07C75.31 9 75.55 8.94 75.79 8.9C75.82 8.89 75.84 8.89 75.87 8.88C76.09 8.84 76.31 8.81 76.53 8.79C76.57 8.78 76.61 8.78 76.65 8.78C76.86 8.76 77.06 8.75 77.27 8.75C77.32 8.75 77.38 8.75 77.43 8.75C77.62 8.76 77.81 8.76 78 8.78C78.07 8.79 78.14 8.79 78.2 8.8C78.38 8.82 78.55 8.85 78.72 8.88C78.8 8.89 78.88 8.91 78.96 8.92C79.12 8.96 79.28 8.99 79.44 9.04C79.52 9.06 79.61 9.09 79.69 9.11C79.84 9.16 79.99 9.21 80.13 9.27C80.22 9.3 80.32 9.33 80.41 9.37C80.54 9.43 80.68 9.5 80.81 9.56C80.91 9.61 81 9.65 81.09 9.7C81.22 9.77 81.35 9.85 81.48 9.93C81.57 9.98 81.65 10.03 81.74 10.09C81.88 10.18 82.01 10.29 82.14 10.39C82.21 10.44 82.28 10.49 82.35 10.55C82.55 10.71 82.75 10.88 82.93 11.07C83.12 11.25 83.29 11.45 83.45 11.65C83.51 11.71 83.56 11.79 83.61 11.86C83.71 11.99 83.82 12.12 83.91 12.26C83.97 12.35 84.02 12.43 84.07 12.52C84.15 12.65 84.23 12.78 84.3 12.91C84.35 13 84.39 13.09 84.44 13.19C84.5 13.32 84.57 13.46 84.63 13.59C84.66 13.68 84.7 13.78 84.73 13.87C84.79 14.01 84.84 14.16 84.88 14.3C84.91 14.39 84.94 14.48 84.96 14.56C85 14.72 85.04 14.88 85.08 15.04C85.09 15.12 85.11 15.2 85.12 15.28C85.15 15.45 85.18 15.62 85.2 15.8C85.2 15.86 85.21 15.93 85.22 16C85.23 16.19 85.24 16.38 85.25 16.57C85.25 16.62 85.25 16.68 85.25 16.73C85.25 16.94 85.24 17.14 85.22 17.35C85.22 17.39 85.21 17.43 85.21 17.47C85.19 17.69 85.16 17.91 85.12 18.13C85.11 18.16 85.11 18.18 85.1 18.21C85.06 18.45 85 18.69 84.93 18.92C84.93 18.93 84.93 18.94 84.92 18.94C84.78 19.42 84.59 19.9 84.35 20.35C84.3 20.45 84.24 20.55 84.18 20.65C84.12 20.76 84.05 20.88 83.98 20.99C83.9 21.12 83.8 21.24 83.71 21.37C83.64 21.46 83.57 21.56 83.5 21.66L83.46 21.7C83.3 21.9 83.12 22.1 82.93 22.29L22.29 82.95C22.1 83.14 21.9 83.32 21.7 83.48L21.66 83.52ZM6.92 53.51L53.5 6.92C56.5 3.91 61.33 3.58 64.71 6.16L68.71 9.22L9.22 68.73L6.16 64.73C3.58 61.34 3.91 56.52 6.92 53.51ZM40.5 87.1C37.49 90.11 32.67 90.44 29.29 87.86L25.29 84.81L84.78 25.29L87.84 29.3L87.84 29.29C90.41 32.68 90.09 37.5 87.08 40.51L40.5 87.1ZM69.07 28.28C71.71 25.64 72.48 22.46 72.53 22.26C72.61 21.91 72.39 21.55 72.04 21.47C71.69 21.39 71.33 21.61 71.25 21.96C71.23 22.03 69.62 28.62 63.06 30.15C55.72 31.87 53.83 39.15 53.76 39.43C53.74 39.5 51.86 45.75 46.13 47.09C39.77 48.58 37.64 55.2 37.48 55.7C37.37 56.01 34.99 62.28 29.71 63.51C23.6 64.94 21.56 71.44 21.48 71.72C21.37 72.06 21.57 72.43 21.92 72.54C22.26 72.64 22.63 72.45 22.74 72.1C22.76 72.04 24.65 66.05 30.01 64.79C36.1 63.37 38.63 56.42 38.74 56.09C38.76 56.03 40.72 49.71 46.43 48.37C52.9 46.86 54.94 40.09 55.03 39.78C55.05 39.71 56.79 32.97 63.36 31.43C65.86 30.85 67.71 29.64 69.07 28.28Z" />
			</g>
		</g>
	</g>
</svg>